<svg xmlns="http://www.w3.org/2000/svg" width="120" height="117" viewBox="0 0 120 117">
  <defs>
    <linearGradient id="category--roller-a" x1=".668%" y1=".668%" y2="100%">
      <stop offset="0%" stop-color="#C9DAD6"/>
      <stop offset="73.025%" stop-color="#D5DED0"/>
      <stop offset="100%" stop-color="#DAD5C9"/>
    </linearGradient>
  </defs>
  <g fill="none" fill-rule="evenodd">
    <rect width="120" height="180"/>
    <g transform="translate(52 37.33)">
      <path fill="url(#category--roller-a)" fill-opacity=".4" d="M16,65 C16,65 15.9769231,26.2768409 16,24 C15.9769231,22.320174 12.7327959,20 8,20 C3.26720406,20 0.0230769231,22.320174 0,24 C0.0230769231,26.2768409 0,65 0,65 C0,65 3.05164147,62.9756985 8,63 C12.9483585,63.0243015 16,65 16,65 Z" transform="matrix(1 0 0 -1 0 85)"/>
      <path stroke="#A4BA92" d="M15.5,64.5 L15.5,22 C15.5,19.753624 13.5759456,18.5 8,18.5 C3.08952238,18.5 0.5,20.0226227 0.5,22 L0.5,64.5 L15.5,64.5 Z" transform="matrix(1 0 0 -1 0 83)"/>
      <path stroke="#A4BA92" d="M15.5,22.3301887 L15.5,6.33962264 C15.5,4.46849866 12.5756966,2.82075472 8,2.82075472 C3.42430345,2.82075472 0.5,4.46849866 0.5,6.33962264 L0.5,22.3301887 L15.5,22.3301887 Z" transform="matrix(1 0 0 -1 0 25.15)"/>
      <path stroke="#A4BA92" d="M8,4.5 C12.5835132,4.5 15.5,3.64265384 15.5,2.5 C15.5,1.35734616 12.5835132,0.5 8,0.5 C3.41648678,0.5 0.5,1.35734616 0.5,2.5 C0.5,3.64265384 3.41648678,4.5 8,4.5 Z"/>
    </g>
  </g>
</svg>
