<svg xmlns="http://www.w3.org/2000/svg" width="120" height="117" viewBox="0 0 120 117">
  <defs>
    <linearGradient id="category--balm-a" x1=".668%" y1=".668%" y2="100%">
      <stop offset="0%" stop-color="#C9DAD6"/>
      <stop offset="73.025%" stop-color="#D5DED0"/>
      <stop offset="100%" stop-color="#DAD5C9"/>
    </linearGradient>
  </defs>
  <g fill="none" fill-rule="evenodd">
    <rect width="120" height="180"/>
    <g transform="translate(38 53)">
      <path fill="url(#category--balm-a)" fill-opacity=".4" d="M44,47.2727273 L44,20.8181818 C44,18.8098736 36.7489465,16.4545455 22.5,16.4545455 C8.25105346,16.4545455 1,18.8098736 1,20.8181818 L1,47.2727273 C1,47.2727273 8.16666667,43.3636364 22.5,43.3636364 C36.8333333,43.3636364 44,47.2727273 44,47.2727273 Z" transform="matrix(1 0 0 -1 0 63.727)"/>
      <path stroke="#A4BA92" d="M22,6.77272727 C35.0779804,6.77272727 43.5,5.28245935 43.5,3.63636364 C43.5,1.99026792 35.0779804,0.5 22,0.5 C8.92201957,0.5 0.5,1.99026792 0.5,3.63636364 C0.5,5.28245935 8.92201957,6.77272727 22,6.77272727 Z"/>
      <path stroke="#A4BA92" d="M43.5,46.9960319 C43.5,46.0657282 43.5,45.6991593 43.5,41.3761683 L43.5,7.72727273 C43.5,5.95834756 34.7195913,4.13636364 22,4.13636364 C9.28040874,4.13636364 0.5,5.95834756 0.5,7.72727273 L0.5,46.7727273 L43.5,46.7727273 L43.5,46.9960319 Z" transform="matrix(1 0 0 -1 0 50.91)"/>
      <path stroke="#A4BA92" d="M43.5,20.5909091 L43.5,8.72727273 C43.5,6.65226522 34.6500908,4.13636364 22.5,4.13636364 C10.2416115,4.13636364 0.5,6.72564594 0.5,8.72727273 L0.5,20.5909091 L43.5,20.5909091 Z" transform="matrix(1 0 0 -1 0 24.727)"/>
    </g>
  </g>
</svg>
