<?xml version="1.0" encoding="UTF-8"?>
<svg width="120px" height="117px" viewBox="0 0 120 117" version="1.1" xmlns="http://www.w3.org/2000/svg" xmlns:xlink="http://www.w3.org/1999/xlink">
    <!-- Generator: Sketch 49.3 (51167) - http://www.bohemiancoding.com/sketch -->
    <title>category--all</title>
    <desc>Created with Sketch.</desc>
    <defs></defs>
    <g id="Symbols" stroke="none" stroke-width="1" fill="none" fill-rule="evenodd">
        <g id="category--all">
            <g>
                <rect id="Rectangle-2" x="0" y="0" width="120" height="180"></rect>
                <g transform="translate(30.000000, 43.000000)" id="Group-3">
                    <g transform="translate(7.000000, 5.000000)">
                        <path d="M20.5787898,22.1146893 L20.5787898,20.1937832 L5.70846464,16.1347279 C4.37648367,15.7711457 3.59144129,14.3966203 3.95502342,13.0646393 C4.31860555,11.7326583 5.69313102,10.9476159 7.025112,11.3111981 L20.5787898,15.0108568 L20.5787898,12.0956652 L12.6737814,7.8875352 C11.4550024,7.23873384 10.9929443,5.72476088 11.6417457,4.50598196 C12.290547,3.28720303 13.80452,2.82514492 15.0232989,3.47394628 L20.5787898,6.43134072 L20.5787898,3 C20.5787898,1.61928813 21.6980779,0.5 23.0787898,0.5 C24.4595016,0.5 25.5787898,1.61928813 25.5787898,3 L25.5787898,6.56116728 L31.3781609,3.47394628 C32.5969399,2.82514492 34.1109128,3.28720303 34.7597142,4.50598196 C35.4085155,5.72476088 34.9464574,7.23873384 33.7276785,7.8875352 L25.5787898,12.2254918 L25.5787898,15.0782546 L39.3762133,11.3112348 C40.7081739,10.9475783 42.0827432,11.732544 42.4463997,13.0645047 C42.8100562,14.3964654 42.0250905,15.7710347 40.6931298,16.1346911 L25.5787898,20.26126 L25.5787898,22.1146893 L43.4014599,22.1146893 C44.7821717,22.1146893 45.9014599,23.2339774 45.9014599,24.6146893 C45.9014599,25.9954011 44.7821717,27.1146893 43.4014599,27.1146893 L25.5787898,27.1146893 L25.5787898,46.6577778 C25.5787898,48.0384897 24.4595016,49.1577778 23.0787898,49.1577778 C21.6980779,49.1577778 20.5787898,48.0384897 20.5787898,46.6577778 L20.5787898,27.1146893 L3,27.1146893 C1.61928813,27.1146893 0.5,25.9954011 0.5,24.6146893 C0.5,23.2339774 1.61928813,22.1146893 3,22.1146893 L20.5787898,22.1146893 Z" id="Combined-Shape" fill-opacity="0.4" fill="#EAF2E9" fill-rule="nonzero"></path>
                        <path d="M21.0787898,19.8119723 L21.0787898,22.6146893 L3,22.6146893 C1.8954305,22.6146893 1,23.5101198 1,24.6146893 C1,25.7192588 1.8954305,26.6146893 3,26.6146893 L21.0787898,26.6146893 L21.0787898,46.6577778 C21.0787898,47.7623473 21.9742203,48.6577778 23.0787898,48.6577778 C24.1833593,48.6577778 25.0787898,47.7623473 25.0787898,46.6577778 L25.0787898,26.6146893 L43.4014599,26.6146893 C44.5060294,26.6146893 45.4014599,25.7192588 45.4014599,24.6146893 C45.4014599,23.5101198 44.5060294,22.6146893 43.4014599,22.6146893 L25.0787898,22.6146893 L25.0787898,19.8794712 L40.5614382,15.6523455 C41.6270067,15.3614203 42.2549792,14.2617649 41.9640541,13.1961963 C41.6731289,12.1306278 40.5734735,11.5026553 39.5079049,11.7935804 L25.0787898,15.7330669 L25.0787898,11.925228 L33.4927267,7.44617631 C34.4677499,6.92713522 34.8373964,5.71595686 34.3183553,4.74093371 C33.7993142,3.76591057 32.5881358,3.39626408 31.6131127,3.91530517 L25.0787898,7.39376833 L25.0787898,3 C25.0787898,1.8954305 24.1833593,1 23.0787898,1 C21.9742203,1 21.0787898,1.8954305 21.0787898,3 L21.0787898,7.26394177 L14.7883472,3.91530517 C13.813324,3.39626408 12.6021457,3.76591057 12.0831046,4.74093371 C11.5640635,5.71595686 11.93371,6.92713522 12.9087331,7.44617631 L21.0787898,11.7954014 L21.0787898,15.6656311 L6.89344726,11.793551 C5.82786248,11.5026853 4.7282421,12.1307192 4.4373764,13.196304 C4.1465107,14.2618888 4.7745446,15.3615092 5.84012938,15.6523749 L21.0787898,19.8119723 Z" id="Combined-Shape" stroke="#A4BA92" fill-rule="nonzero"></path>
                    </g>
                </g>
            </g>
        </g>
    </g>
</svg>