<svg xmlns="http://www.w3.org/2000/svg" width="36" height="36" viewBox="0 0 36 36">
  <g fill="none" fill-rule="evenodd">
    <rect width="36" height="36"/>
    <path stroke="#FFF" stroke-width="2" d="M8 14.9942021L8 28.00077C8 29.655419 9.34759914 31 11.0095579 31L24.9904421 31C26.6499398 31 28 29.6546254 28 28.00077L28 14.9942021C28 13.8950371 27.1033865 13 25.9986131 13L10.0013869 13C8.89510216 13 8 13.8931003 8 14.9942021zM13 13L23 13 23 5.99961498C23 5.44402857 22.5527829 5 21.9914698 5L14.0085302 5C13.4521023 5 13 5.44967787 13 5.99961498L13 13z"/>
  </g>
</svg>
