<svg xmlns="http://www.w3.org/2000/svg" width="36" height="36" viewBox="0 0 36 36">
  <g fill="#999">
    <path d="M12,23.85 C17.9922895,23.85 22.85,18.9922895 22.85,13 C22.85,7.00771046 17.9922895,2.15 12,2.15 C6.00771046,2.15 1.15,7.00771046 1.15,13 C1.15,18.9922895 6.00771046,23.85 12,23.85 Z M12,25 C5.372583,25 0,19.627417 0,13 C0,6.372583 5.372583,1 12,1 C18.627417,1 24,6.372583 24,13 C24,19.627417 18.627417,25 12,25 Z"/>
    <path d="M9.23684119,28.7582033 C7.99260381,26.8672462 7.2686429,24.6035146 7.2686429,22.1706929 C7.2686429,15.5432759 12.6412259,10.1706929 19.2686429,10.1706929 C25.8960599,10.1706929 31.2686429,15.5432759 31.2686429,22.1706929 C31.2686429,28.7981099 25.8960599,34.1706929 19.2686429,34.1706929 L19.2686429,33.0206929 C25.2609324,33.0206929 30.1186429,28.1629824 30.1186429,22.1706929 C30.1186429,16.1784034 25.2609324,11.3206929 19.2686429,11.3206929 C13.2763534,11.3206929 8.4186429,16.1784034 8.4186429,22.1706929 C8.4186429,24.3188541 9.04291721,26.3713341 10.1975273,28.1260781 L9.23684119,28.7582033 Z" transform="rotate(-120 19.269 22.17)"/>
    <path d="M31,8.85 C33.1262963,8.85 34.85,7.12629629 34.85,5 C34.85,2.87370371 33.1262963,1.15 31,1.15 C28.8737037,1.15 27.15,2.87370371 27.15,5 C27.15,7.12629629 28.8737037,8.85 31,8.85 Z M31,10 C28.2385763,10 26,7.76142375 26,5 C26,2.23857625 28.2385763,0 31,0 C33.7614237,0 36,2.23857625 36,5 C36,7.76142375 33.7614237,10 31,10 Z"/>
  </g>
</svg>
