<svg xmlns="http://www.w3.org/2000/svg" width="120" height="117" viewBox="0 0 120 117">
  <g fill="none" fill-rule="evenodd">
    <rect width="120" height="180"/>
    <g transform="translate(30 43)">
      <path stroke="#A4BA92" d="M2.5,19.5 L2.5,57 C2.5,57.8284271 3.17157288,58.5 4,58.5 L56,58.5 C56.8284271,58.5 57.5,57.8284271 57.5,57 L57.5,19.5 L2.5,19.5 Z"/>
      <rect width="54" height="38" x="3" y="20" fill="#EAF2E9" fill-opacity=".4"/>
      <rect width="59" height="7" x=".5" y="12.5" stroke="#A4BA92" rx="1"/>
      <rect width="56" height="1" x="2" y="38.5" fill="#A4BA92"/>
      <rect width="1" height="45" x="29.5" y="13" fill="#A4BA92"/>
      <path stroke="#A4BA92" d="M13.3043478,26 C16.3875543,24.8954469 22.0447977,14.7823873 24.2760778,12.6282665 C25.8769737,11.0827309 27.7849478,10.9845067 30,12.3335939 C30,11.7811706 30,11.2496827 30,10.7391304 C30,5.02095347 26.3020808,0.975337017 21,0.173913043 C15.6979192,-0.62751093 10,3.4207416 10,8.39130435 C10,9.80525333 10.3260624,11.1430464 10.9070977,12.3335939"/>
      <path stroke="#A4BA92" d="M13,31 C16.1308264,29.9083172 21.8754455,15.9597039 24,14 C25.7197467,12.3595951 27.7197467,11.7634288 30,12.2115011 C30.0309898,12.5421891 30.0309898,12.4716888 30,12 C28.6888832,1.84352184 12.3806914,2.91174192 18,12.5354522"/>
      <path stroke="#A4BA92" d="M30,31 C33.1308264,29.9083172 38.8754455,15.9597039 41,14 C42.7197467,12.3595951 44.7197467,11.7634288 47,12.2115011 C47.0309898,12.5421891 47.0309898,12.4716888 47,12 C45.6888832,1.84352184 29.3806914,2.91174192 35,12.5354522" transform="matrix(-1 0 0 1 77.023 0)"/>
      <path stroke="#A4BA92" d="M33.3043478,25.9977497 C36.3875543,24.8931966 42.0447977,14.780137 44.2760778,12.6260162 C45.8769737,11.0804806 47.7849478,10.9822564 50,12.3313436 C50,11.7789202 50,11.2474324 50,10.7368801 C50,5.01870315 46.3020808,0.973086699 41,0.171662726 C35.6979192,-0.629761248 30,3.41849128 30,8.38905403 C30,9.80300302 30.3260624,11.140796 30.9070977,12.3313436" transform="matrix(-1 0 0 1 80 0)"/>
      <path stroke="#A4BA92" d="M33.3043478,25.9977497 C36.3875543,24.8931966 42.0447977,14.780137 44.2760778,12.6260162 C45.8769737,11.0804806 47.7849478,10.9822564 50,12.3313436 C50,11.7789202 50,11.2474324 50,10.7368801 C50,5.01870315 46.3020808,0.973086699 41,0.171662726 C35.6979192,-0.629761248 30,3.41849128 30,8.38905403 C30,9.80300302 30.3260624,11.140796 30.9070977,12.3313436" transform="matrix(-1 0 0 1 80 0)"/>
    </g>
  </g>
</svg>
