<svg xmlns="http://www.w3.org/2000/svg" width="120" height="117" viewBox="0 0 120 117">
  <defs>
    <linearGradient id="category--stick-a" x1=".668%" y1=".668%" y2="100%">
      <stop offset="0%" stop-color="#C9DAD6"/>
      <stop offset="73.025%" stop-color="#D5DED0"/>
      <stop offset="100%" stop-color="#DAD5C9"/>
    </linearGradient>
  </defs>
  <g fill="none" fill-rule="evenodd">
    <rect width="120" height="180"/>
    <g transform="translate(38 25)">
      <path fill="url(#category--stick-a)" fill-opacity=".4" d="M44,74.5660377 L44,30.8301887 C44,28.8503 36.2489465,26.5283019 22,26.5283019 C7.75105346,26.5283019 0,28.8503 0,30.8301887 L0,74.5660377 C0,74.5660377 8.16666667,70.6981132 22.5,70.6981132 C36.8333333,70.6981132 44,74.5660377 44,74.5660377 Z" transform="matrix(1 0 0 -1 0 101.094)"/>
      <path stroke="#A4BA92" d="M22,12.4056604 C35.0720363,12.4056604 43.5,10.9354442 43.5,9.32075472 C43.5,8.39558388 41.2811978,6.13628326 38.0990418,4.35416565 C33.8028303,1.94813838 28.3045763,0.5 22,0.5 C15.6954237,0.5 10.1971697,1.94813838 5.90095824,4.35416565 C2.71880224,6.13628326 0.5,8.39558388 0.5,9.32075472 C0.5,10.9354442 8.92796373,12.4056604 22,12.4056604 Z"/>
      <path stroke="#A4BA92" d="M43.5,74.7830189 L43.5,30.1132075 C43.5,28.0754633 34.647149,25.5943396 22.5,25.5943396 C10.24492,25.5943396 0.5,28.1478481 0.5,30.1132075 L0.5,74.7830189 L43.5,74.7830189 Z" transform="matrix(1 0 0 -1 0 100.377)"/>
      <path stroke="#A4BA92" d="M27.2366862,74.7602135 C27.2366862,74.5478385 27.2366862,74.2173397 27.2366862,73.6025016 L27.2366862,71.4632623 C27.2366862,70.7729475 27.2366862,70.6129921 27.2366862,70.1951816 C25.5732233,70.0972218 23.8327359,70.0471698 22.0033529,70.0471698 C20.1732771,70.0471698 18.4305942,70.0970801 16.7700195,70.194611 C16.7700195,70.7044335 16.7700195,70.8725544 16.7700195,71.7037295 C16.7700195,73.7656496 16.7700195,74.2438235 16.7700195,74.7602035 C16.7972177,74.7590283 16.8251963,74.7578234 16.8539338,74.7565908 C17.3250599,74.7363828 17.8284881,74.716176 18.3436784,74.6973139 C18.8503678,74.6787631 19.3417324,74.6625125 19.8079314,74.6492086 C20.6732797,74.6245141 21.4167656,74.6109395 22.0025382,74.6109395 C22.5885231,74.6109395 23.3324597,74.6245239 24.1984317,74.649235 C24.6644826,74.6625341 25.1556837,74.6787754 25.6622063,74.6973137 C26.177574,74.7161757 26.6811924,74.7363825 27.1525087,74.7565904 C27.1813385,74.7578265 27.2094049,74.7590347 27.2366862,74.7602135 Z" transform="matrix(1 0 0 -1 0 144.83)"/>
      <path stroke="#A4BA92" d="M43.5,30.3301887 L43.5,14.3396226 C43.5,12.3392624 34.2012063,9.82075472 22,9.82075472 C9.79879366,9.82075472 0.5,12.3392624 0.5,14.3396226 L0.5,30.3301887 L43.5,30.3301887 Z" transform="matrix(1 0 0 -1 0 40.15)"/>
    </g>
  </g>
</svg>
