<svg xmlns="http://www.w3.org/2000/svg" width="120" height="117" viewBox="0 0 120 117">
  <defs>
    <linearGradient id="category--bath-crystal-a" x1=".668%" y1=".668%" y2="100%">
      <stop offset="0%" stop-color="#C9DAD6"/>
      <stop offset="73.025%" stop-color="#D5DED0"/>
      <stop offset="100%" stop-color="#DAD5C9"/>
    </linearGradient>
  </defs>
  <g fill="none" fill-rule="evenodd">
    <rect width="120" height="180"/>
    <g transform="translate(48 39.33)">
      <path fill="url(#category--bath-crystal-a)" fill-opacity=".4" d="M24,63 C24,63 23.9769231,26.2768409 24,24 C23.9769231,22.320174 20.7327959,20 12,20 C3.26720406,20 0.0230769231,22.320174 0,24 C0.0230769231,26.2768409 0,63 0,63 C0,63 2.05164147,59.9756985 12,60 C21.9483585,60.0243015 24,63 24,63 Z" transform="matrix(1 0 0 -1 0 83)"/>
      <path stroke="#A4BA92" d="M20.5263041,62.5 C20.6605857,61.2647162 21.3015053,60.4152303 22.2763932,59.9277864 C22.7066757,59.7126452 23.1321019,59.5940832 23.5,59.5390456 L23.5,17 C23.5,15.3501797 18.2047267,13.5 12,13.5 C5.79527334,13.5 0.5,15.3501797 0.5,17 L0.5,59.5390456 C0.867898146,59.5940832 1.29332433,59.7126452 1.7236068,59.9277864 C2.69849466,60.4152303 3.33941434,61.2647162 3.47369591,62.5 L20.5263041,62.5 Z" transform="matrix(1 0 0 -1 0 76)"/>
      <path stroke="#A4BA92" d="M12,4.5 C16.5835132,4.5 19.5,3.64265384 19.5,2.5 C19.5,1.35734616 16.5835132,0.5 12,0.5 C7.41648678,0.5 4.5,1.35734616 4.5,2.5 C4.5,3.64265384 7.41648678,4.5 12,4.5 Z"/>
      <path stroke="#A4BA92" d="M4.69009635 4.16998419C1.81521206 4.85627603.5 6.00281124.5 7.5.5 9.98545918 4.17048233 11.5 12 11.5 19.8295177 11.5 23.5 9.98545918 23.5 7.5 23.5 6.014611 22.2060166 4.87476793 19.3770667 4.1861813L4.69009635 4.16998419zM2.84990055 13.0903338C1.23843421 13.780792.5 14.6993095.5 15.8300802.5 18.3155394 4.17048233 19.8300802 12 19.8300802 19.8295177 19.8300802 23.5 18.3155394 23.5 15.8300802 23.5 14.6644219 22.7140294 13.7225366 20.9972638 13.0265911L2.84990055 13.0903338z"/>
      <path stroke="#A4BA92" d="M23.5,14.3301887 L23.5,11.3396226 C23.5,9.61396136 18.5414562,7.82075472 12,7.82075472 C5.45854382,7.82075472 0.5,9.61396136 0.5,11.3396226 L0.5,14.3301887 L23.5,14.3301887 Z" transform="matrix(1 0 0 -1 0 22.15)"/>
      <path stroke="#A4BA92" d="M23.5,23.3301887 L23.5,20.3396226 C23.5,18.6139614 18.5414562,16.8207547 12,16.8207547 C5.45854382,16.8207547 0.5,18.6139614 0.5,20.3396226 L0.5,23.3301887 L23.5,23.3301887 Z" transform="matrix(1 0 0 -1 0 40.15)"/>
      <path stroke="#A4BA92" d="M4.54549254,3.09999847 C4.98049429,8.40107245 5.29787775,12.0181983 5.49735179,13.9486074 C5.68214959,15.7369873 7.23532901,16.3966913 10.4483615,16.4855732 C10.8814796,16.4975545 11.2317708,16.5 12,16.5 C16.5696975,16.5 18.2888601,16.017541 18.5026482,13.9486074 C18.7021275,12.018147 19.0203993,8.40103579 19.4571771,3.09999847 L4.54549254,3.09999847 Z"/>
    </g>
  </g>
</svg>
