<?xml version="1.0" encoding="UTF-8"?>
<svg width="22px" height="28px" viewBox="0 0 22 28" version="1.1" xmlns="http://www.w3.org/2000/svg" xmlns:xlink="http://www.w3.org/1999/xlink">
    <!-- Generator: Sketch 44.1 (41455) - http://www.bohemiancoding.com/sketch -->
    <title>icon--bag</title>
    <desc>Created with Sketch.</desc>
    <defs></defs>
    <g id="Symbols" stroke="none" stroke-width="1" fill="none" fill-rule="evenodd">
        <g id="icon--bag" transform="translate(-7.000000, -4.000000)">
            <g>
                <rect id="Rectangle-3" x="0" y="0" width="36" height="36"></rect>
                <path d="M8,14.9942021 L8,28.00077 C8,29.655419 9.34759914,31 11.0095579,31 L24.9904421,31 C26.6499398,31 28,29.6546254 28,28.00077 L28,14.9942021 C28,13.8950371 27.1033865,13 25.9986131,13 L10.0013869,13 C8.89510216,13 8,13.8931003 8,14.9942021 Z" id="Rectangle" stroke="#000000" stroke-width="2"></path>
                <path d="M13,13 L23,13 L23,5.99961498 C23,5.44402857 22.5527829,5 21.9914698,5 L14.0085302,5 C13.4521023,5 13,5.44967787 13,5.99961498 L13,13 Z" id="Rectangle-2" stroke="#000000" stroke-width="2"></path>
            </g>
        </g>
    </g>
</svg>